<?xml version="1.0" encoding="UTF-8" standalone="no"?>
<!-- Created with Inkscape (http://www.inkscape.org/) -->

<svg
   width="180"
   height="180"
   viewBox="0 0 47.625 47.625"
   version="1.1"
   id="svg1"
   inkscape:export-filename="Finalizados/Oficina FT Motopeças (sem contorno).svg"
   inkscape:export-xdpi="96"
   inkscape:export-ydpi="96"
   inkscape:version="1.3.2 (091e20e, 2023-11-25)"
   sodipodi:docname="Oficina.svg"
   xml:space="preserve"
   xmlns:inkscape="http://www.inkscape.org/namespaces/inkscape"
   xmlns:sodipodi="http://sodipodi.sourceforge.net/DTD/sodipodi-0.dtd"
   xmlns="http://www.w3.org/2000/svg"
   xmlns:svg="http://www.w3.org/2000/svg"><sodipodi:namedview
     id="namedview1"
     pagecolor="#ffffff"
     bordercolor="#000000"
     borderopacity="0.25"
     inkscape:showpageshadow="2"
     inkscape:pageopacity="0.0"
     inkscape:pagecheckerboard="0"
     inkscape:deskcolor="#d1d1d1"
     inkscape:document-units="mm"
     inkscape:zoom="2.6316978"
     inkscape:cx="89.48596"
     inkscape:cy="90.435917"
     inkscape:window-width="1366"
     inkscape:window-height="699"
     inkscape:window-x="0"
     inkscape:window-y="0"
     inkscape:window-maximized="1"
     inkscape:current-layer="layer1" /><defs
     id="defs1"><linearGradient
       id="swatch14"
       inkscape:swatch="solid"><stop
         style="stop-color:#3242ff;stop-opacity:1;"
         offset="0"
         id="stop14" /></linearGradient><linearGradient
       id="swatch13"
       inkscape:swatch="solid"><stop
         style="stop-color:#3242ff;stop-opacity:1;"
         offset="0"
         id="stop13" /></linearGradient></defs><g
     inkscape:label="Camada 1"
     inkscape:groupmode="layer"
     id="layer1"><rect
       style="display:inline;opacity:1;fill:#db0f0f;fill-opacity:1;stroke:#ffffff;stroke-width:0.1;stroke-linecap:round;stroke-linejoin:round;stroke-dasharray:none;stroke-opacity:1"
       id="rect13"
       width="49.825371"
       height="49.410805"
       x="-1.2980742"
       y="-0.5923661"
       inkscape:label="cor" /><path
       id="path14"
       style="display:inline;fill:#ffffff;fill-opacity:1;stroke:#ffffff;stroke-width:4.2;stroke-linecap:round;stroke-linejoin:round;stroke-dasharray:none;stroke-opacity:1"
       inkscape:label="contorno"
       d="M 32.707031,5.3398438 C 31.342144,5.4052293 30.032968,5.8765396 28.822656,6.4636421 27.752761,6.4108772 26.68522,6.0532683 25.59557,6.0182174 19.264063,5.4404092 12.757031,8.1475222 8.7100655,13.0515 5.8413718,16.447394 4.1736244,20.835715 4.0800781,25.28125 c 4.3404175,-0.0245 8.6198329,0.09669 12.9664059,0.05859 1.387447,-0.06793 2.737867,0.0346 4.164454,0.002 2.987961,0.0069 5.97393,0.0039 8.951171,-0.04297 2.231864,0.09573 4.558892,0.01365 6.827344,0.04102 2.236429,-0.0875 4.525487,-0.04795 6.79375,-0.05859 -0.06211,-2.704096 -0.714804,-5.473642 -1.894531,-7.958984 -0.05562,-0.700202 0.312763,-1.365297 0.3125,-2.074219 -0.416187,0.388662 -1.198797,0.481685 -1.499293,-0.06803 -1.364068,-2.1617 -3.161884,-4.041263 -5.235082,-5.5335316 C 35.279691,8.9905966 35.594566,8.5549373 36.140625,8.2207031 36.973819,7.5453042 37.847783,6.9224428 38.748047,6.3398438 37.150932,5.6055023 35.326116,5.4670331 33.705078,5.3320312 33.372184,5.3147297 33.039814,5.32706 32.707031,5.3398438 Z M 17.308594,25.90625 c 0.356648,-0.256672 0.157214,-0.81647 0,0 z m 13.21289,-0.08203 c 0.271818,0.657462 0.04707,-0.814896 0,0 z M 9.8417969,31.4375 c 0.3210051,-0.260375 0.044259,-1.118501 0.1367187,-1.607422 0.7552714,-0.397531 -0.3377784,-0.770944 0,-1.424609 0.061561,-0.557934 0.07147,-1.538991 -0.1367187,-0.579688 0,1.203907 0,2.407813 0,3.611719 z m 4.2636721,0 c 0.321204,-0.291035 0.04411,-1.180369 0.136719,-1.7 0,-0.770573 -1e-6,-1.541146 0,-2.311719 -0.321205,0.291035 -0.04411,1.180369 -0.136719,1.7 0,0.770573 0,1.541146 0,2.311719 z m 7.240234,0 c 0.321205,-0.291035 0.04411,-1.180369 0.136719,-1.7 0,-0.770573 0,-1.541146 0,-2.311719 -0.321205,0.291035 -0.04411,1.180369 -0.136719,1.7 0,0.770573 0,1.541146 0,2.311719 z m 2.503906,0 c 0.276886,-0.328192 0.0327,-1.177453 0.115235,-1.7 -0.04107,-0.551643 -0.106609,-1.325392 0.620145,-1.348769 0.252548,0.0765 -0.15049,-1.112175 -0.586161,-0.96295 -0.346365,0.270042 -0.05119,1.181619 -0.149219,1.7 0,0.770573 0,1.541146 0,2.311719 z m 2.841797,-1.136719 c -0.51734,0.428063 -0.933902,0.254345 -0.431968,0.839935 0.449733,0.840037 0.703437,-0.187018 0.547203,-0.703216 0,-1.003906 0,-2.007812 0,-3.011719 -0.276886,0.328193 -0.0327,1.177454 -0.115235,1.7 0,0.391667 0,0.783334 0,1.175 z m 3.175782,-2.445312 c 0.407228,-0.460771 1.410737,0.293845 0.792578,-0.429688 -0.431654,0.02506 -0.784571,-0.165231 -0.792578,0.429688 z m 1.005859,0.0098 c 0.112271,0.727058 0.45327,1.50649 0.423809,2.201094 -0.426946,0.374001 0.480214,0.925963 0.484785,1.371172 -0.264497,-1.159448 -0.61257,-2.388862 -0.908594,-3.572266 z m 5.316406,3.572266 c 0.321006,-0.260375 0.04426,-1.118501 0.136719,-1.607422 0.755271,-0.397531 -0.337779,-0.770944 0,-1.424609 0.06156,-0.557934 0.07147,-1.538991 -0.136719,-0.579688 0,1.203907 0,2.407813 0,3.611719 z m 5.300781,-3.816406 c 0,1.272135 0,2.544271 0,3.816406 0.321205,-0.291035 0.04411,-1.180369 0.136719,-1.7 0.05094,-0.7177 -0.09954,-1.518836 0.07071,-2.187117 0.445158,-0.223022 -0.868224,-0.178342 -0.20743,0.07071 z m -24.779296,0.0332 c -0.43374,0.455848 -0.09695,1.200579 -0.203126,1.771094 0.111445,0.577561 -0.245131,1.346105 0.220704,1.795312 -0.195196,-1.061224 -0.03227,-2.175257 -0.08008,-3.255859 -0.003,-0.09409 0.06367,-0.285511 0.0625,-0.310547 z m -9.3496099,0.0059 c 0.1750144,1.08658 0.045291,2.220251 0.0625,3.322266 C 7.29767,31.584795 7.7788724,30.49935 7.578125,30.302807 7.53397,29.482487 7.662801,28.631969 7.521484,27.828198 7.48236,27.769768 7.4100004,27.687415 7.3613281,27.660229 Z m -2.3554687,0.0059 c -0.4396226,0.494192 -0.096608,1.275066 -0.2050782,1.882812 0.098156,0.536494 -0.223419,1.243913 0.2167969,1.660156 -0.179051,-1.08771 -0.046327,-2.224279 -0.064453,-3.328125 -0.044758,0.0075 0.1078,-0.268794 0.052734,-0.214843 z m 14.0253906,0.0625 c 0.07727,0.684802 0.25037,0.03562 0,0 z m 9.912109,3.708984 c -0.03622,-0.487849 0.941519,-0.991793 0.462814,-1.38836 -0.08473,-0.285614 0.424839,-1.906699 0.159842,-1.02317 -0.207552,0.803843 -0.415104,1.607687 -0.622656,2.41153 z m -9.863281,-0.601562 c -0.251307,1.569376 0.29164,-0.919233 0,0 z m -11.9824218,7.5 c 11.3437498,-10e-7 22.6874998,0 34.0312498,0 1.011068,-1.783204 2.022136,-3.566407 3.033203,-5.34961 -13.366536,0 -26.733073,0 -40.099609,0 1.0117188,1.783203 2.0234375,3.566406 3.0351562,5.34961 z M 31.52849,26.255224 h 10.735154 v 6.083479 H 31.52849 Z" /><g
       id="g13"
       inkscape:label="roda"><path
         id="path1"
         style="display:inline;fill:#000000;fill-opacity:1;stroke-width:1;stroke-linecap:round;stroke-linejoin:round"
         d="M 23.929109,5.4180565 C 12.667064,5.4180129 3.5373624,14.547715 3.5374061,25.80976 H 44.32081 C 44.320854,14.547716 35.191153,5.418014 23.929109,5.4180565 Z"
         sodipodi:nodetypes="cccc"
         inkscape:label="semicírculo" /><path
         id="path6"
         style="display:inline;opacity:1;fill:#f9fafe;fill-opacity:1;stroke-width:0.999998;stroke-linecap:round;stroke-linejoin:round"
         inkscape:label="2"
         d="m 23.929289,10.278268 c -3.619,-1.4e-5 -15.0513867,2.233507 -15.6998172,15.549955 H 39.563477 C 38.921413,12.109223 27.037914,10.278256 23.929289,10.278268 Z" /><path
         id="path7"
         style="opacity:1;fill:#000505;fill-opacity:1;stroke:none;stroke-width:0.1;stroke-linecap:round;stroke-linejoin:round;stroke-dasharray:none;stroke-opacity:1"
         d="M 21.497396 12.561507 C 18.139556 13.696217 15.441872 14.315089 12.238013 19.434989 C 20.153578 24.599455 24.732191 23.992585 21.497396 12.561507 z M 26.473836 12.561507 C 23.239041 23.992585 27.817138 24.599455 35.732703 19.434989 C 32.528842 14.315089 29.831676 13.696217 26.473836 12.561507 z M 10.622091 24.600049 C 10.604298 25.046109 10.60146 25.463924 10.606071 25.868188 L 17.916219 25.868188 C 16.350344 25.069033 13.834996 24.667292 10.622091 24.600049 z M 37.373429 24.600049 C 34.160524 24.667292 31.645176 25.069033 30.079301 25.868188 L 37.389449 25.868188 C 37.39406 25.463924 37.391222 25.046109 37.373429 24.600049 z " /><path
         id="path11"
         style="opacity:1;fill:#000000;fill-opacity:1;stroke:none;stroke-width:0.1;stroke-linecap:round;stroke-linejoin:round;stroke-dasharray:none;stroke-opacity:1"
         d="M 23.912236 21.99504 A 0.53880984 0.53880984 0 0 0 23.37325 22.534025 A 0.53880984 0.53880984 0 0 0 23.912236 23.07301 A 0.53880984 0.53880984 0 0 0 24.450704 22.534025 A 0.53880984 0.53880984 0 0 0 23.912236 21.99504 z M 23.912236 24.069332 A 1.8729948 1.8729948 0 0 0 22.054468 25.78809 L 25.778271 25.78809 A 1.8729948 1.8729948 0 0 0 23.912236 24.069332 z M 20.314006 24.481193 A 0.53880984 0.53880984 0 0 0 19.77502 25.020178 A 0.53880984 0.53880984 0 0 0 20.314006 25.558647 A 0.53880984 0.53880984 0 0 0 20.852991 25.020178 A 0.53880984 0.53880984 0 0 0 20.314006 24.481193 z M 27.448971 24.481193 A 0.53880984 0.53880984 0 0 0 26.909985 25.020178 A 0.53880984 0.53880984 0 0 0 27.448971 25.558647 A 0.53880984 0.53880984 0 0 0 27.987956 25.020178 A 0.53880984 0.53880984 0 0 0 27.448971 24.481193 z " /></g><path
       id="path4"
       style="display:inline;fill:#000000;fill-opacity:1;stroke-width:1;stroke-linecap:round;stroke-linejoin:round"
       d="m 3.1561802,32.45694 v 0.0062 l 3.6323364,6.402193 h 16.3736774 1.900142 16.374195 l 3.632336,-6.402193 v -0.0062 H 25.035464 23.189582 Z"
       inkscape:label="retângulo" /><path
       id="path2"
       style="display:inline;fill:#3242ff;fill-opacity:1;stroke-width:0.999997;stroke-linecap:round;stroke-linejoin:round"
       d="m 33.273533,4.7931986 c -5.251016,2e-7 -9.507964,4.2740709 -9.507964,9.5463984 0,1.852465 0.52749,3.580712 1.436984,5.044616 l -6.551728,6.48632 h 9.571349 l 2.390478,-2.366203 c 0.844665,0.246844 1.736867,0.381667 2.660881,0.381667 5.251017,0 9.507963,-4.27407 9.507963,-9.5464 0,-0.126458 -6.193034,3.965178 -8.081635,2.501109 -3.247933,-2.517803 -1.76646,-6.144354 4.363415,-10.0737628 1.704625,-1.0927081 -3.611008,-1.9737446 -5.789743,-1.9737446 z"
       inkscape:label="chave"
       sodipodi:nodetypes="ssccccsssss" /><path
       style="font-size:9.03789px;line-height:0;font-family:Bebas;-inkscape-font-specification:Bebas;text-align:center;baseline-shift:baseline;text-anchor:middle;fill:#3242ff;stroke:#3242ff;stroke-width:0.3;stroke-linecap:round;stroke-linejoin:round;stroke-opacity:1"
       d="m 4.9594859,39.981015 q -0.6868797,0 -1.1116605,-0.415743 -0.4247809,-0.42478 -0.4247809,-1.11166 v -3.452474 q 0,-0.68688 0.4247809,-1.102623 0.4247808,-0.424781 1.1116605,-0.424781 0.6868797,0 1.1116605,0.424781 0.4247809,0.415743 0.4247809,1.102623 v 3.452474 q 0,0.68688 -0.4247809,1.11166 -0.4247808,0.415743 -1.1116605,0.415743 z m 0,-0.903789 q 0.2711367,0 0.4247809,-0.162682 0.1536441,-0.162682 0.1536441,-0.460932 v -3.452474 q 0,-0.298251 -0.1536441,-0.460933 -0.1536442,-0.162682 -0.4247809,-0.162682 -0.2711367,0 -0.4247809,0.162682 -0.1536441,0.162682 -0.1536441,0.460933 v 3.452474 q 0,0.29825 0.1536441,0.460932 0.1536442,0.162682 0.4247809,0.162682 z m 2.5034932,-5.513113 h 2.6752159 v 0.903789 H 8.4209955 v 1.852768 h 1.3556836 v 0.903789 H 8.4209955 v 2.666177 H 7.4629791 Z m 3.4163079,0 h 0.958016 v 6.326523 h -0.958016 z m 3.425344,6.416902 q -0.668803,0 -1.084546,-0.415743 -0.415743,-0.415743 -0.415743,-1.084546 v -3.506702 q 0,-0.668804 0.415743,-1.084547 0.415743,-0.415743 1.084546,-0.415743 0.668804,0 1.084547,0.415743 0.415743,0.415743 0.415743,1.084547 v 0.741107 h -0.93994 v -0.741107 q 0,-0.271137 -0.153644,-0.433819 -0.153645,-0.162682 -0.397668,-0.162682 -0.244023,0 -0.397667,0.162682 -0.153644,0.162682 -0.153644,0.433819 v 3.506702 q 0,0.271136 0.153644,0.433818 0.153644,0.162682 0.397667,0.162682 0.244023,0 0.397668,-0.162682 0.153644,-0.162682 0.153644,-0.433818 v -0.90379 h 0.93994 v 0.90379 q 0,0.668803 -0.415743,1.084546 -0.415743,0.415743 -1.084547,0.415743 z m 2.376949,-6.416902 h 0.958017 v 6.326523 H 16.68158 Z m 2.006395,0 h 1.057434 l 1.220115,4.247809 v -4.247809 h 0.93994 v 6.326523 h -1.012243 l -1.265305,-4.048974 v 4.048974 h -0.939941 z m 6.154789,4.92565 h -1.03032 l -0.207871,1.400873 h -0.958017 l 1.048396,-6.326523 h 1.28338 l 1.048395,6.326523 h -0.976092 z m -0.126531,-0.921864 -0.388629,-2.648102 -0.388629,2.648102 z m 3.859159,-4.003786 h 2.675216 v 0.903789 h -1.717199 v 1.852768 h 1.355683 v 0.903789 h -1.355683 v 2.666177 h -0.958017 z m 3.199384,0 h 3.054807 v 0.903789 h -1.048395 v 5.422734 h -0.958017 v -5.422734 h -1.048395 z"
       id="text3"
       inkscape:label="Oficina FT"
       aria-label="OfICINA FT"
       transform="scale(1.2479053,0.80134286)" /><path
       id="text4"
       style="font-style:normal;font-variant:normal;font-weight:normal;font-stretch:normal;font-size:6.84915px;line-height:0;font-family:Bebas, Itálico;-inkscape-font-specification:'Bebas, Itálico';text-align:center;text-anchor:middle;display:inline;fill:#ffffff;fill-opacity:1;stroke:none;stroke-width:0.3;stroke-linecap:round;stroke-linejoin:round;stroke-dasharray:none;stroke-opacity:1"
       inkscape:label="Moto-Peças"
       d="m 12.366406,37.925827 c -0.347023,0 -0.627843,0.107515 -0.84245,0.322122 -0.214606,0.21004 -0.321779,0.488497 -0.321779,0.83552 v 2.616283 c 0,0.347023 0.107173,0.627955 0.321779,0.842561 0.214607,0.21004 0.495427,0.31508 0.84245,0.31508 0.347024,0 0.627844,-0.10504 0.842451,-0.31508 0.214606,-0.214606 0.321778,-0.495538 0.321778,-0.842561 v -2.616283 c 0,-0.347023 -0.107172,-0.62548 -0.321778,-0.83552 -0.214607,-0.214607 -0.495427,-0.322122 -0.842451,-0.322122 z m 5.643644,0 c -0.347023,0 -0.627844,0.107515 -0.84245,0.322122 -0.214607,0.21004 -0.321779,0.488497 -0.321779,0.83552 v 2.616283 c 0,0.347023 0.107172,0.627955 0.321779,0.842561 0.214606,0.21004 0.495427,0.31508 0.84245,0.31508 0.347023,0 0.627844,-0.10504 0.84245,-0.31508 0.214607,-0.214606 0.321779,-0.495538 0.321779,-0.842561 v -2.616283 c 0,-0.347023 -0.107172,-0.62548 -0.321779,-0.83552 -0.214606,-0.214607 -0.495427,-0.322122 -0.84245,-0.322122 z m 10.581832,0 c -0.337891,0 -0.611929,0.10504 -0.82197,0.315081 -0.21004,0.21004 -0.314951,0.484134 -0.314951,0.822025 v 2.657355 c 0,0.337891 0.104911,0.611985 0.314951,0.822025 0.204194,0.204194 0.470091,0.307049 0.795117,0.312733 0.09272,0.541321 -0.141578,0.715167 -0.527954,0.46646 l 0.0046,0.481129 c 0.368016,0.274101 1.012975,0.0717 0.768719,-0.963431 0.239165,-0.03674 0.440934,-0.134319 0.603506,-0.296891 0.21004,-0.21004 0.314952,-0.484134 0.314952,-0.822025 V 41.03556 H 29.01652 v 0.684728 c 0,0.136982 -0.03889,0.246385 -0.116514,0.328575 -0.07762,0.08219 -0.178013,0.123216 -0.301297,0.123216 -0.123285,0 -0.223674,-0.04103 -0.301298,-0.123216 -0.07762,-0.08219 -0.116514,-0.191593 -0.116514,-0.328575 v -2.657355 c 0,-0.136983 0.03889,-0.246972 0.116514,-0.329162 0.07762,-0.08219 0.178013,-0.123216 0.301298,-0.123216 0.123284,0 0.223674,0.04103 0.301297,0.123216 0.07762,0.08219 0.116514,0.192179 0.116514,0.329162 v 0.561512 h 0.712283 v -0.561512 c 0,-0.337891 -0.104912,-0.611985 -0.314952,-0.822025 -0.21004,-0.210041 -0.484078,-0.315081 -0.821969,-0.315081 z m 5.671406,0 c -0.342457,0 -0.611973,0.107515 -0.808315,0.322122 -0.196342,0.21004 -0.294471,0.495335 -0.294471,0.856056 0,0.264834 0.06376,0.509102 0.191611,0.732841 0.132417,0.223738 0.376608,0.50467 0.732763,0.842561 0.264834,0.251136 0.440743,0.44754 0.527499,0.589089 0.09132,0.141549 0.136995,0.289503 0.136995,0.444751 0,0.141549 -0.04341,0.253426 -0.130168,0.335616 -0.08219,0.08219 -0.193884,0.123216 -0.335433,0.123216 -0.146115,0 -0.260525,-0.04975 -0.342714,-0.150206 -0.08219,-0.100454 -0.123341,-0.237795 -0.123341,-0.411306 v -0.177783 l -0.698629,0.0751 v 0.171329 c 0,0.228304 0.04793,0.431547 0.143822,0.609624 0.100454,0.178078 0.239734,0.317307 0.417812,0.417761 0.178077,0.100454 0.381573,0.150792 0.609877,0.150792 0.228305,0 0.431345,-0.05034 0.609423,-0.150792 0.178078,-0.100454 0.315097,-0.239683 0.410985,-0.417761 0.100454,-0.178077 0.150648,-0.38132 0.150648,-0.609624 0,-0.260268 -0.06602,-0.497699 -0.198437,-0.712305 -0.127851,-0.219173 -0.369781,-0.506942 -0.725937,-0.863098 -0.260267,-0.260267 -0.436177,-0.45856 -0.527498,-0.595543 -0.09132,-0.141549 -0.136995,-0.288202 -0.136995,-0.438883 0,-0.150681 0.03437,-0.264447 0.10286,-0.34207 0.06849,-0.07762 0.16662,-0.116762 0.29447,-0.116762 0.127851,0 0.22598,0.04845 0.294471,0.144339 0.06849,0.09589 0.102405,0.235116 0.102405,0.41776 v 0.136711 l 0.698628,-0.0751 v -0.123216 c 0,-0.360722 -0.09813,-0.648491 -0.29447,-0.863097 -0.196342,-0.214607 -0.465403,-0.322122 -0.807861,-0.322122 z m -27.0954055,0.06865 v 4.794269 H 7.8801649 V 39.50123 l 0.6781475,3.287516 H 9.0653301 L 9.7430224,39.50123 v 3.287516 h 0.7263916 v -4.79427 H 9.4280707 l -0.6025955,3.06162 -0.6303586,-3.06162 z m 6.8629435,0 v 0.684728 h 0.794206 v 4.109541 h 0.726392 v -4.109541 h 0.794206 v -0.684728 z m 7.93114,0 v 4.794269 h 0.725936 v -1.94505 h 0.410985 c 0.347023,0 0.623322,-0.102565 0.828796,-0.30804 0.205475,-0.21004 0.308125,-0.489084 0.308125,-0.836107 v -0.561512 c 0,-0.347023 -0.10265,-0.623005 -0.308125,-0.82848 -0.205474,-0.21004 -0.481773,-0.31508 -0.828796,-0.31508 z m 2.88372,0 v 4.794269 h 2.061295 v -0.684728 h -1.335359 v -1.404074 h 1.061369 V 40.01463 h -1.061369 v -1.335425 h 1.335359 v -0.684728 z m 6.109244,0 -0.794662,4.794269 h 0.726392 l 0.157476,-1.061417 h 0.780552 l 0.157476,1.061417 h 0.740046 l -0.794662,-4.794269 z m -18.588524,0.616079 c 0.136983,0 0.244156,0.04103 0.321779,0.123216 0.07762,0.08219 0.116514,0.199017 0.116514,0.349698 v 2.616283 c 0,0.150681 -0.03889,0.266921 -0.116514,0.349111 -0.07762,0.08219 -0.184796,0.123216 -0.321779,0.123216 -0.136982,0 -0.244155,-0.04103 -0.321778,-0.123216 -0.07762,-0.08219 -0.116514,-0.19843 -0.116514,-0.349111 V 39.08347 c 0,-0.150681 0.03889,-0.267508 0.116514,-0.349698 0.07762,-0.08219 0.184796,-0.123216 0.321778,-0.123216 z m 5.643644,0 c 0.136983,0 0.244155,0.04103 0.321779,0.123216 0.07762,0.08219 0.116514,0.199017 0.116514,0.349698 v 2.616283 c 0,0.150681 -0.03889,0.266921 -0.116514,0.349111 -0.07762,0.08219 -0.184796,0.123216 -0.321779,0.123216 -0.136983,0 -0.244155,-0.04103 -0.321779,-0.123216 -0.07762,-0.08219 -0.116514,-0.19843 -0.116514,-0.349111 V 39.08347 c 0,-0.150681 0.03889,-0.267508 0.116514,-0.349698 0.07762,-0.08219 0.184796,-0.123216 0.321779,-0.123216 z m 4.677852,0.06865 h 0.37685 c 0.141549,0 0.250982,0.03914 0.328606,0.116762 0.07762,0.07762 0.116514,0.187026 0.116514,0.328575 v 0.589089 c 0,0.141549 -0.03889,0.250952 -0.116514,0.328575 -0.07762,0.07762 -0.187057,0.116762 -0.328606,0.116762 h -0.37685 z m 8.746282,0.342657 0.294926,2.006658 h -0.589396 z m -11.718752,1.013304 v 0.712304 h 1.643938 v -0.712304 z"
       transform="scale(1.135415,0.88073523)" /><g
       id="g17"
       inkscape:label="roda" /></g></svg>
